<svg width="130" height="130" viewBox="0 0 130 130" fill="none" xmlns="http://www.w3.org/2000/svg">
<path d="M55 27H76V35H55V27Z" fill="#1CA800"/>
<path d="M55 95H76V103H55V95Z" fill="#1CA800"/>
<path d="M48 75.5772L75.5772 48L81.234 53.6569L53.6569 81.234L48 75.5772Z" fill="#1CA800"/>
<path d="M3 13C3 7.47715 7.47716 3 13 3H49C54.5229 3 59 7.47715 59 13V49C59 54.5228 54.5229 59 49 59H13C7.47715 59 3 54.5228 3 49V13Z" fill="#00690E"/>
<path d="M71 81C71 75.4772 75.4772 71 81 71H117C122.523 71 127 75.4772 127 81V117C127 122.523 122.523 127 117 127H81C75.4772 127 71 122.523 71 117V81Z" fill="#00690E"/>
<path d="M71 13C71 7.47715 75.4772 3 81 3H117C122.523 3 127 7.47715 127 13V49C127 54.5228 122.523 59 117 59H81C75.4772 59 71 54.5228 71 49V13Z" fill="#00690E"/>
<path d="M3 81C3 75.4772 7.47715 71 13 71H49C54.5228 71 59 75.4772 59 81V117C59 122.523 54.5228 127 49 127H13C7.47715 127 3 122.523 3 117V81Z" fill="#00690E"/>
<path fill-rule="evenodd" clip-rule="evenodd" d="M0.500003 13C0.500003 6.09644 6.09644 0.5 13 0.5H49C55.9036 0.5 61.5 6.09644 61.5 13V49C61.5 55.9036 55.9036 61.5 49 61.5H13C6.09644 61.5 0.500003 55.9036 0.500003 49V13ZM13 5.5C8.85787 5.5 5.5 8.85786 5.5 13V49C5.5 53.1421 8.85787 56.5 13 56.5H49C53.1421 56.5 56.5 53.1421 56.5 49V13C56.5 8.85786 53.1421 5.5 49 5.5H13Z" fill="#095213"/>
<path fill-rule="evenodd" clip-rule="evenodd" d="M68.5 81C68.5 74.0964 74.0964 68.5 81 68.5H117C123.904 68.5 129.5 74.0964 129.5 81V117C129.5 123.904 123.904 129.5 117 129.5H81C74.0964 129.5 68.5 123.904 68.5 117V81ZM81 73.5C76.8579 73.5 73.5 76.8579 73.5 81V117C73.5 121.142 76.8579 124.5 81 124.5H117C121.142 124.5 124.5 121.142 124.5 117V81C124.5 76.8579 121.142 73.5 117 73.5H81Z" fill="#095213"/>
<path fill-rule="evenodd" clip-rule="evenodd" d="M68.5 13C68.5 6.09644 74.0964 0.5 81 0.5H117C123.904 0.5 129.5 6.09644 129.5 13V49C129.5 55.9036 123.904 61.5 117 61.5H81C74.0964 61.5 68.5 55.9036 68.5 49V13ZM81 5.5C76.8579 5.5 73.5 8.85786 73.5 13V49C73.5 53.1421 76.8579 56.5 81 56.5H117C121.142 56.5 124.5 53.1421 124.5 49V13C124.5 8.85786 121.142 5.5 117 5.5H81Z" fill="#095213"/>
<path fill-rule="evenodd" clip-rule="evenodd" d="M0.5 81C0.5 74.0964 6.09644 68.5 13 68.5H49C55.9036 68.5 61.5 74.0964 61.5 81V117C61.5 123.904 55.9036 129.5 49 129.5H13C6.09644 129.5 0.5 123.904 0.5 117V81ZM13 73.5C8.85786 73.5 5.5 76.8579 5.5 81V117C5.5 121.142 8.85786 124.5 13 124.5H49C53.1421 124.5 56.5 121.142 56.5 117V81C56.5 76.8579 53.1421 73.5 49 73.5H13Z" fill="#095213"/>
<g filter="url(#filter0_d_30_14)">
<path d="M105.297 85.25C107.484 85.375 109.281 86.2188 110.688 87.7813C112.094 89.3125 113.109 91.0625 113.734 93.0313C114.359 95 114.672 97.0156 114.672 99.0781C114.672 101.141 114.359 103.156 113.734 105.125C113.141 107.094 112.125 108.859 110.688 110.422C109.281 111.953 107.484 112.781 105.297 112.906H88.0469C87.2031 112.875 86.4844 112.578 85.8906 112.016C85.3281 111.422 85.0312 110.703 85 109.859V98.2344C85.0312 97.3594 85.3594 96.6406 85.9844 96.0781C86.6094 95.4844 87.3594 95.1875 88.2344 95.1875C89.0781 95.2188 89.7969 95.5313 90.3906 96.125C90.9844 96.6875 91.2969 97.3906 91.3281 98.2344V105.359C91.3281 106.203 91.7656 106.625 92.6406 106.625H103.703C104.891 106.563 105.875 106.109 106.656 105.266C107.438 104.422 108 103.469 108.344 102.406C108.719 101.313 108.906 100.203 108.906 99.0781C108.906 97.9531 108.719 96.8594 108.344 95.7969C108 94.7031 107.438 93.7344 106.656 92.8906C105.875 92.0469 104.891 91.5938 103.703 91.5313H88.0469C86.1719 91.375 85.1562 90.3594 85 88.4844C85 87.6094 85.2812 86.8594 85.8438 86.2344C86.4375 85.6094 87.1719 85.2813 88.0469 85.25H105.297Z" fill="#EFEFEF"/>
<path d="M30.9062 83.9844C32.5312 83.9844 34.125 84.1719 35.6875 84.5469C37.2812 84.9219 38.7969 85.4844 40.2344 86.2344C41.6719 86.9531 42.9375 87.9219 44.0312 89.1406C45.1562 90.3594 45.7656 91.8125 45.8594 93.5V110.422C45.6719 112.297 44.6406 113.313 42.7656 113.469C41.8906 113.469 41.125 113.188 40.4688 112.625C39.8438 112.031 39.5312 111.297 39.5312 110.422V94.9531C39.4688 93.9844 39.0938 93.1875 38.4062 92.5625C37.75 91.9063 37 91.3906 36.1562 91.0156C35.3438 90.6406 34.4844 90.3594 33.5781 90.1719C32.7031 89.9844 31.8125 89.8906 30.9062 89.8906C30 89.8906 29.0938 89.9844 28.1875 90.1719C27.3125 90.3594 26.4531 90.6406 25.6094 91.0156C24.7969 91.3906 24.0469 91.9063 23.3594 92.5625C22.7031 93.1875 22.3438 93.9844 22.2812 94.9531V110.422C22.125 112.297 21.1094 113.313 19.2344 113.469C18.3594 113.469 17.5938 113.188 16.9375 112.625C16.3125 112.031 16 111.297 16 110.422V93.5C16.0938 91.8125 16.6875 90.3594 17.7812 89.1406C18.875 87.9219 20.1406 86.9531 21.5781 86.2344C23.0156 85.4844 24.5156 84.9219 26.0781 84.5469C27.6719 84.1719 29.2812 83.9844 30.9062 83.9844Z" fill="#EFEFEF"/>
<path d="M83.9688 41.7656C83.9688 40.8906 84.2656 40.1563 84.8594 39.5625C85.4844 38.9375 86.2344 38.625 87.1094 38.625H96.1094V23.5313H87.1094C86.2344 23.5313 85.5 23.2188 84.9062 22.5938C84.2812 22 83.9688 21.2656 83.9688 20.3906C83.9688 19.5156 84.2656 18.7813 84.8594 18.1875C85.4844 17.5625 86.2344 17.25 87.1094 17.25H111.391C112.266 17.25 113.016 17.5469 113.641 18.1406C114.234 18.7656 114.531 19.5156 114.531 20.3906C114.531 21.2656 114.219 22.0156 113.594 22.6406C113 23.2344 112.266 23.5313 111.391 23.5313H102.438V38.625H111.391C112.266 38.625 113.016 38.9219 113.641 39.5156C114.234 40.1406 114.531 40.8906 114.531 41.7656C114.531 42.6406 114.219 43.3906 113.594 44.0156C113 44.6094 112.266 44.9063 111.391 44.9063H87.1094C86.2344 44.9063 85.5 44.5938 84.9062 43.9688C84.2812 43.375 83.9688 42.6406 83.9688 41.7656Z" fill="#EFEFEF"/>
<path d="M19.1875 45.4688C18.3438 45.4375 17.625 45.1406 17.0313 44.5781C16.4375 43.9844 16.125 43.2656 16.0938 42.4219V30.75C16.125 28.5313 16.4375 26.4375 17.0313 24.4688C17.6563 22.5 18.6719 20.8438 20.0781 19.5C21.5156 18.125 23.3281 17.375 25.5156 17.25H43.6094C44.4531 17.2813 45.1563 17.5938 45.7188 18.1875C46.3125 18.75 46.625 19.4531 46.6563 20.2969C46.6563 21.1719 46.3594 21.9219 45.7656 22.5469C45.2031 23.1719 44.4844 23.5 43.6094 23.5313H27.1094C25.9219 23.5938 24.9375 24.0469 24.1563 24.8906C23.375 25.7344 22.875 26.7031 22.6563 27.7969C22.4688 28.8594 22.3906 30.0313 22.4219 31.3125V42.4219C22.3906 43.2969 22.0625 44.0313 21.4375 44.625C20.8125 45.1875 20.0625 45.4688 19.1875 45.4688ZM24.625 33.1406C24.625 32.2656 24.9375 31.5313 25.5625 30.9375C26.1563 30.3125 26.8906 30 27.7656 30H43.6094C44.4844 30 45.2188 30.3125 45.8125 30.9375C46.4375 31.5313 46.75 32.2656 46.75 33.1406C46.75 34.0156 46.4531 34.7656 45.8594 35.3906C45.2344 35.9844 44.4844 36.2813 43.6094 36.2813H27.7656C26.8906 36.2813 26.1406 35.9844 25.5156 35.3906C24.9219 34.7656 24.625 34.0156 24.625 33.1406Z" fill="#EFEFEF"/>
</g>
<defs>
<filter id="filter0_d_30_14" x="14" y="15.25" width="106.672" height="104.219" filterUnits="userSpaceOnUse" color-interpolation-filters="sRGB">
<feFlood flood-opacity="0" result="BackgroundImageFix"/>
<feColorMatrix in="SourceAlpha" type="matrix" values="0 0 0 0 0 0 0 0 0 0 0 0 0 0 0 0 0 0 127 0" result="hardAlpha"/>
<feOffset dx="2" dy="2"/>
<feGaussianBlur stdDeviation="2"/>
<feComposite in2="hardAlpha" operator="out"/>
<feColorMatrix type="matrix" values="0 0 0 0 0 0 0 0 0 0 0 0 0 0 0 0 0 0 0.5 0"/>
<feBlend mode="normal" in2="BackgroundImageFix" result="effect1_dropShadow_30_14"/>
<feBlend mode="normal" in="SourceGraphic" in2="effect1_dropShadow_30_14" result="shape"/>
</filter>
</defs>
</svg>
